# xmcd
#
# Track frame offsets:
#	150
#	18403
#	33308
#	44986
#	51081
#	67369
#	81445
#	103438
#	116548
#	139764
#	157690
#	165985
#	177001
#	191510
#	204340
#	215524
#	224205
#	234951
#	248894
#	263076
#	278371
#	292443
#	302977
#	315196
#	327834
#
# Disc length: 4536 seconds
#
# Revision: 0
# Processed by: cddbd v1.5.1PL2 Copyright (c) Steve Scherf et al.
# Submitted via: dBpowerAMP V4.0
#
DISCID=7811b619
DTITLE=Simon and Garfunkel - The Essential
DYEAR=1900
DGENRE=
TTITLE0=Mrs. Robinson
TTITLE1=Fakin' It
TTITLE2=Old Friends
TTITLE3=Bookends Theme
TTITLE4=America
TTITLE5=El Condor Pasa
TTITLE6=Bridge over troubled water
TTITLE7=Cecilia
TTITLE8=The Boxer
TTITLE9=The Only Living Boy In New York
TTITLE10=Song For The Asking
TTITLE11=For Emely, Whenever 
TTITLE12=My Little Town
TTITLE13=I am A Rock
TTITLE14=Homeward Bound
TTITLE15=The 59th Street Bridge Song (feelin groovy)
TTITLE16=At The Zoo
TTITLE17=The Sound Of Silence
TTITLE18=Scarborough Fair-canticle
TTITLE19=Kathy's Son
TTITLE20=El Condor Pasa (if I Could)
TTITLE21=Wednesday Morning, 3am
TTITLE22=Bleecker Street
TTITLE23=He Was My Brother 
TTITLE24=The Sun Is Burning 
EXTD=
EXTT0=
EXTT1=
EXTT2=
EXTT3=
EXTT4=
EXTT5=
EXTT6=
EXTT7=
EXTT8=
EXTT9=
EXTT10=
EXTT11=
EXTT12=
EXTT13=
EXTT14=
EXTT15=
EXTT16=
EXTT17=
EXTT18=
EXTT19=
EXTT20=
EXTT21=
EXTT22=
EXTT23=
EXTT24=
PLAYORDER=
